<svg height="7.8866mm" style="shape-rendering:geometricPrecision;clip-rule:evenodd;image-rendering:optimizeQuality;fill-rule:evenodd;text-rendering:geometricPrecision" version="1.1" viewBox="0 0 337 131" width="20.2468mm" xml:space="preserve" xmlns="http://www.w3.org/2000/svg"><defs>
  
 </defs>
 
 
  
  <path d="M50 131l34 0c6,-2 29,-3 38,-5 13,-2 25,-4 38,-7 24,-5 48,-14 71,-18 -3,-9 -5,-4 -2,-18 5,-28 3,-42 26,-42 18,0 20,9 17,26 -6,37 -4,20 -11,34l28 0c0,0 -11,-16 1,-24 16,-10 5,-1 23,-16 9,-7 36,-31 19,-47 -19,-18 -105,-4 -132,-1 0,-8 2,-5 6,-12l-33 0c6,8 5,6 4,17l19 -3c0,14 -9,6 -19,12 -3,4 -8,45 -11,59 -3,11 -4,8 -9,14l33 0c0,0 -1,0 -1,1 0,1 -1,1 -1,1l-8 3c-4,1 -7,2 -12,3 -27,5 -46,9 -76,10 -84,3 -49,-37 -32,-42 2,14 13,23 26,26 24,5 28,-1 37,-13 -51,14 -50,-32 -28,-44 13,-7 34,-5 37,8 3,12 -6,34 -5,48l21 0c-3,-12 -3,-9 -1,-24 1,-9 2,-17 4,-26 2,-15 7,-36 8,-51 -8,2 -15,1 -23,2 2,6 7,1 4,17 -1,4 -3,14 -5,17 -20,-8 -37,-10 -55,3 -15,11 -11,14 -17,20 -4,4 -64,22 -61,49 2,18 43,21 49,24zm136 -34c3,3 2,1 3,5 24,-2 21,-14 27,-50 2,-10 3,-12 -2,-19l20 -3c2,2 1,-1 1,3 0,1 0,5 0,5 11,-8 20,-13 38,-9 19,4 16,14 16,32 27,-10 49,-52 -45,-44 -11,1 -20,2 -31,4 -17,3 -17,-1 -19,15 -3,18 -10,42 -9,61z"></path>
 
</svg>
