<svg height="17.656mm" style="shape-rendering:geometricPrecision;clip-rule:evenodd;image-rendering:optimizeQuality;fill-rule:evenodd;text-rendering:geometricPrecision" version="1.1" viewBox="0 0 2841 3069" width="16.3435mm" xml:space="preserve" xmlns="http://www.w3.org/2000/svg"><defs>
  
 </defs>
 
 
  
  
   <polygon points="1751,1138 2114,1763 1391,1766" style="fill:#ed3237"></polygon>
   <path d="M2162 2161l528 909 151 -264 -528 -909 -1051 3 -151 264 1051 -3zm-404 444l209 -365 150 0 77 132 -208 364 -227 -130zm-706 -1043l523 -912 153 263 -523 912 -1051 3 -153 -263 1051 -3zm-407 -442l212 364 150 -1 76 -133 -211 -362 -227 132zm1440 -208l528 909 -304 1 -528 -909 523 -912 304 -1 -523 912zm586 -131l-421 1 -74 130 77 132 419 -1 -1 -262z" style="fill:#373435"></path>
  
 
</svg>
